<svg id="Layer_1" data-name="Layer 1" xmlns="http://www.w3.org/2000/svg" viewBox="0 0 501 501"><defs><style>.cls-1{fill:none;stroke:#b3b3b3;stroke-miterlimit:10;}</style></defs><title>grid</title><rect class="cls-1" x="0.5" y="0.5" width="500" height="500"/><line class="cls-1" x1="0.5" y1="455.05" x2="500.5" y2="455.05"/><line class="cls-1" x1="0.5" y1="409.59" x2="500.5" y2="409.59"/><line class="cls-1" x1="0.5" y1="364.14" x2="500.5" y2="364.14"/><line class="cls-1" x1="0.5" y1="318.68" x2="500.5" y2="318.68"/><line class="cls-1" x1="0.5" y1="273.23" x2="500.5" y2="273.23"/><line class="cls-1" x1="0.5" y1="227.77" x2="500.5" y2="227.77"/><line class="cls-1" x1="0.5" y1="182.32" x2="500.5" y2="182.32"/><line class="cls-1" x1="0.5" y1="136.86" x2="500.5" y2="136.86"/><line class="cls-1" x1="0.5" y1="91.41" x2="500.5" y2="91.41"/><line class="cls-1" x1="0.5" y1="45.95" x2="500.5" y2="45.95"/><line class="cls-1" x1="455.05" y1="0.5" x2="455.05" y2="500.5"/><line class="cls-1" x1="409.59" y1="0.5" x2="409.59" y2="500.5"/><line class="cls-1" x1="364.14" y1="0.5" x2="364.14" y2="500.5"/><line class="cls-1" x1="318.68" y1="0.5" x2="318.68" y2="500.5"/><line class="cls-1" x1="273.23" y1="0.5" x2="273.23" y2="500.5"/><line class="cls-1" x1="227.77" y1="0.5" x2="227.77" y2="500.5"/><line class="cls-1" x1="182.32" y1="0.5" x2="182.32" y2="500.5"/><line class="cls-1" x1="136.86" y1="0.5" x2="136.86" y2="500.5"/><line class="cls-1" x1="91.41" y1="0.5" x2="91.41" y2="500.5"/><line class="cls-1" x1="45.95" y1="0.5" x2="45.95" y2="500.5"/></svg>